<svg width="21" height="37" viewBox="0 0 21 37" fill="none" xmlns="http://www.w3.org/2000/svg">
    <path d="M10.5025 22C9.61858 22 8.75474 21.8996 7.93108 21.6987V34.8571C7.93108 35.5603 8.51367 36.1429 9.2168 36.1429H11.7882C12.4914 36.1429 13.0739 35.5603 13.0739 34.8571V21.6987C12.2503 21.8996 11.3864 22 10.5025 22ZM10.5025 0.142855C4.81724 0.142855 0.216797 4.7433 0.216797 10.4286C0.216797 16.1138 4.81724 20.7143 10.5025 20.7143C16.1878 20.7143 20.7882 16.1138 20.7882 10.4286C20.7882 4.7433 16.1878 0.142855 10.5025 0.142855ZM10.5025 4.64286C7.30832 4.64286 4.7168 7.23438 4.7168 10.4286C4.7168 10.7902 4.43555 11.0714 4.07394 11.0714C3.71233 11.0714 3.43108 10.7902 3.43108 10.4286C3.43108 6.53125 6.60519 3.35714 10.5025 3.35714C10.8641 3.35714 11.1454 3.63839 11.1454 4C11.1454 4.36161 10.8641 4.64286 10.5025 4.64286Z" fill="#6AC142"/>
</svg>
